# xmcd
#
# Track frame offsets:
# 183
# 11245
# 25895
# 48645
# 64258
# 76533
#
# Disc length: 1283 seconds
#
#
# Revision: 0
# Processed by: cddbd v1.5.2PL0 Copyright (c) Steve Scherf et al.
# Submitted via: FreeRIP 2.951 
#
DISCID=44050106
DTITLE=B.B. King - The Magic Collection
DYEAR=1900
DGENRE=Blues
TTITLE0=Catfish Blues
TTITLE1=B.B Boogie
TTITLE2=Everyday (I Have The Blues)
TTITLE3=Walkin' And Cryin'
TTITLE4=Please Love Me
TTITLE5=How Blue Can You Get
EXTD=
EXTT0=
EXTT1=
EXTT2=
EXTT3=
EXTT4=
EXTT5=
PLAYORDER=
